<?xml version="1.0" encoding="UTF-8"?>
<svg version="1.1" xmlns="http://www.w3.org/2000/svg" width="1080" height="1080">
<path d="M0 0 C1.30917892 -0.00701431 2.61835785 -0.01402863 3.96720886 -0.02125549 C8.17085255 -0.04065589 12.37444106 -0.04568979 16.578125 -0.046875 C17.65278959 -0.04753778 17.65278959 -0.04753778 18.74916458 -0.04821396 C40.58593564 -0.05527651 62.14979342 0.30469298 83.828125 3.203125 C85.15729345 3.37185076 86.4865605 3.5398013 87.81591797 3.70703125 C175.96122038 14.93599233 260.61681982 48.50711916 364.828125 125.203125 C365.33794922 125.62948242 365.84777344 126.05583984 366.37304688 126.49511719 C379.99938813 137.89855118 392.80551428 150.10408758 405.390625 162.640625 C406.22352051 163.46884766 407.05641602 164.29707031 407.91455078 165.15039062 C412.2171455 169.46428281 416.3654218 173.85175984 420.33764648 178.47192383 C422.20174229 180.63708409 424.13973457 182.72947394 426.078125 184.828125 C431.10291383 190.4036917 435.69344748 196.27186115 440.27880859 202.20800781 C441.92514347 204.32805959 443.58806794 206.43430675 445.25390625 208.5390625 C452.85590094 218.17208461 460.04495678 227.97794019 466.828125 238.203125 C467.4782959 239.17354736 467.4782959 239.17354736 468.14160156 240.16357422 C493.47892691 278.05703526 513.93512285 319.13705642 528.828125 362.203125 C529.2092041 363.29850586 529.5902832 364.39388672 529.98291016 365.52246094 C544.3346354 407.21400874 552.8544617 450.33785519 556.828125 494.203125 C556.95805344 495.6216275 556.95805344 495.6216275 557.09060669 497.06878662 C557.78943493 505.30426646 558.0026921 513.48721392 558.03125 521.75 C558.03826834 523.12152643 558.04535519 524.4930525 558.05250549 525.86457825 C558.07192849 530.22743186 558.07693966 534.59023252 558.078125 538.953125 C558.07856686 539.69556835 558.07900871 540.4380117 558.07946396 541.20295334 C558.08627825 563.01710776 557.85168938 584.55276653 554.828125 606.203125 C554.64851824 607.55652204 554.4698407 608.91004266 554.29199219 610.26367188 C551.74988144 629.4355048 548.32890203 648.38722949 543.828125 667.203125 C543.55162109 668.36247559 543.27511719 669.52182617 542.99023438 670.71630859 C523.72504696 750.00581866 485.49606963 824.90770663 432.828125 887.203125 C432.40176758 887.71294922 431.97541016 888.22277344 431.53613281 888.74804688 C420.13269882 902.37438813 407.92716242 915.18051428 395.390625 927.765625 C394.56240234 928.59852051 393.73417969 929.43141602 392.88085938 930.28955078 C388.56696719 934.5921455 384.17949016 938.7404218 379.55932617 942.71264648 C377.39416591 944.57674229 375.30177606 946.51473457 373.203125 948.453125 C367.6275583 953.47791383 361.75938885 958.06844748 355.82324219 962.65380859 C353.70319041 964.30014347 351.59694325 965.96306794 349.4921875 967.62890625 C339.85916539 975.23090094 330.05330981 982.41995678 319.828125 989.203125 C318.85770264 989.8532959 318.85770264 989.8532959 317.86767578 990.51660156 C279.97421474 1015.85392691 238.89419358 1036.31012285 195.828125 1051.203125 C194.73274414 1051.5842041 193.63736328 1051.9652832 192.50878906 1052.35791016 C142.45046384 1069.5897801 88.5958853 1080.21430099 35.55859375 1080.40625 C33.59694778 1080.41677147 33.59694778 1080.41677147 31.59567261 1080.42750549 C27.40231833 1080.4468795 23.20901954 1080.4519393 19.015625 1080.453125 C17.94304506 1080.45378778 17.94304506 1080.45378778 16.84879684 1080.45446396 C-4.96851097 1080.46153109 -26.51287004 1080.09897301 -48.171875 1077.203125 C-49.50104345 1077.03439924 -50.8303105 1076.8664487 -52.15966797 1076.69921875 C-140.30497038 1065.47025767 -224.96056982 1031.89913084 -329.171875 955.203125 C-329.68169922 954.77676758 -330.19152344 954.35041016 -330.71679688 953.91113281 C-344.34313813 942.50769882 -357.14926428 930.30216242 -369.734375 917.765625 C-370.56727051 916.93740234 -371.40016602 916.10917969 -372.25830078 915.25585938 C-377.10287139 910.39856822 -381.71298067 905.41474069 -386.171875 900.203125 C-387.20556116 899.0234498 -388.24068913 897.84503623 -389.27734375 896.66796875 C-434.93162174 844.52933255 -470.51484904 783.72040783 -493.171875 718.203125 C-493.5529541 717.10774414 -493.9340332 716.01236328 -494.32666016 714.88378906 C-511.54079587 664.87698153 -522.18403973 611.01955226 -522.375 558.03125 C-522.38201431 556.72207108 -522.38902863 555.41289215 -522.39625549 554.06404114 C-522.41565589 549.86039745 -522.42068979 545.65680894 -522.421875 541.453125 C-522.42231686 540.73668194 -522.42275871 540.02023888 -522.42321396 539.28208542 C-522.43027528 517.44912359 -522.09388918 495.88085299 -519.171875 474.203125 C-518.99292626 472.83092292 -518.81422254 471.45868886 -518.63574219 470.08642578 C-516.1110721 450.93298541 -512.66759474 431.99787807 -508.171875 413.203125 C-507.75711914 411.46409912 -507.75711914 411.46409912 -507.33398438 409.68994141 C-488.09595257 330.51219539 -449.93518513 255.30993796 -397.171875 193.203125 C-396.7078125 192.6555957 -396.24375 192.10806641 -395.765625 191.54394531 C-384.31211636 178.06708088 -372.27793069 165.23235681 -359.796875 152.703125 C-358.96470459 151.86628174 -358.13253418 151.02943848 -357.27514648 150.16723633 C-352.94367298 145.8470348 -348.54020234 141.67953569 -343.90087891 137.69140625 C-341.73630834 135.82820063 -339.64477005 133.89081716 -337.546875 131.953125 C-331.94834854 126.90764447 -326.05424648 122.30615702 -320.09228516 117.70410156 C-318.18591845 116.21410125 -316.30795832 114.69405691 -314.43359375 113.1640625 C-268.96257063 76.40132757 -215.29034556 48.26405922 -160.171875 29.203125 C-159.07649414 28.8220459 -157.98111328 28.4409668 -156.85253906 28.04833984 C-106.84573153 10.83420413 -52.98830226 0.19096027 0 0 Z " fill="#FEFEFE" transform="translate(522.171875,-0.203125)"/>
<path d="M0 0 C25.65192445 68.0387999 25.65192445 68.0387999 33.5 89 C37.89754456 100.74483663 42.31027079 112.48389249 46.734375 124.21875 C46.99345453 124.90596634 47.25253407 125.59318268 47.51946449 126.30122375 C49.70581553 132.10045156 51.89238974 137.89959523 54.07906723 143.69869995 C60.90203025 161.79363505 67.71500367 179.89225486 74.50390625 198 C74.81203373 198.8218428 75.12016121 199.64368561 75.43762589 200.49043274 C78.43678212 208.49033467 81.43473537 216.49068649 84.43088627 224.49171448 C85.53411466 227.43757771 86.6377504 230.38328825 87.74143791 233.32897949 C88.48834681 235.32299711 89.23461727 237.31725278 89.98085022 239.31152344 C92.94545781 247.2241955 95.95298147 255.11871034 99 263 C102.13752807 263 103.57122752 261.04853931 105.9375 259.0625 C106.93394531 258.23234375 107.93039062 257.4021875 108.95703125 256.546875 C109.96121094 255.70640625 110.96539063 254.8659375 112 254 C113.70636673 252.60176323 115.41468084 251.20589938 117.125 249.8125 C124.02317049 244.16854233 130.89991275 238.49857822 137.77832031 232.83056641 C141.3516205 229.88632412 144.92584428 226.9432036 148.5 224 C149.91667137 222.83333904 151.33333803 221.66667237 152.75 220.5 C280.25 115.5 280.25 115.5 282.37768555 113.74780273 C283.78541921 112.58848314 285.19313424 111.42914092 286.60083008 110.26977539 C290.27901439 107.24050687 293.95758211 104.21170559 297.63671875 101.18359375 C298.39855469 100.55646484 299.16039062 99.92933594 299.9453125 99.28320312 C301.39441049 98.09034807 302.84362139 96.89763017 304.29296875 95.70507812 C308.20649887 92.48329503 312.1092939 89.24931442 316 86 C321.37064787 87.48228602 324.44251089 91.07669758 328.20703125 94.94921875 C328.89125656 95.64006058 329.57548187 96.3309024 330.28044128 97.04267883 C332.46502315 99.25061989 334.6392109 101.46844731 336.8125 103.6875 C338.97672007 105.88699707 341.14312954 108.08426994 343.31242371 110.27876282 C344.65927182 111.64233142 346.00300702 113.00898485 347.3429718 114.37931824 C351.12038617 118.21581424 355.02514054 121.81352021 359.10185242 125.32917786 C361.91972641 127.80957838 364.55586743 130.44989379 367.1875 133.125 C368.0077063 133.95088623 368.0077063 133.95088623 368.84448242 134.79345703 C371.14274364 137.1077946 373.43487516 139.4281665 375.72753906 141.74804688 C383.13891286 149.3300138 383.13891286 149.3300138 390.96875 156.46875 C397.81941656 162.29971567 403.98028405 168.92879827 410.30029297 175.32080078 C418.90969554 184.03135631 418.90969554 184.03135631 428.00195312 192.22900391 C432.53714458 196.2488327 436.73570004 200.63446025 441 204.9375 C441.97502386 205.9175531 442.9502828 206.8973724 443.92578125 207.87695312 C446.28616618 210.24902313 448.64416905 212.6234086 451 215 C447.50359471 218.54827746 443.97567479 221.68089594 440 224.6875 C438.83718197 225.5715388 437.67442313 226.45565547 436.51171875 227.33984375 C435.92438965 227.78440918 435.33706055 228.22897461 434.73193359 228.68701172 C432.08252289 230.69554439 429.44759929 232.72274364 426.8125 234.75 C426.28978516 235.15178467 425.76707031 235.55356934 425.22851562 235.9675293 C419.68627445 240.23186641 414.17098526 244.53078205 408.65356445 248.82714844 C403.25338365 253.03039666 397.834403 257.20793305 392.40625 261.375 C388.25758632 264.56627975 384.12967519 267.784213 380 271 C373.81853877 275.81351723 367.62078118 280.60424879 361.40625 285.375 C357.25758632 288.56627975 353.12967519 291.784213 349 295 C342.81853877 299.81351723 336.62078118 304.60424879 330.40625 309.375 C326.25758632 312.56627975 322.12967519 315.784213 318 319 C311.81853877 323.81351723 305.62078118 328.60424879 299.40625 333.375 C295.25758611 336.56627991 291.12969753 339.78424136 287 343 C278.6744784 349.48226799 270.31663422 355.92074101 261.9453125 362.34375 C254.83643351 367.80393636 247.75419879 373.29739353 240.68212891 378.80517578 C235.03887391 383.19812156 229.37649378 387.56519561 223.69921875 391.9140625 C221.86266139 393.33334127 220.05324224 394.78828758 218.26953125 396.2734375 C216 398 216 398 214 398 C217.62488448 402.1608217 222.03832429 404.57491324 226.75 407.3125 C234.50860872 411.89132766 242.18619103 416.57906734 249.8125 421.375 C257.67233186 426.31098951 265.56213559 431.19049202 273.5 436 C281.30836332 440.73298746 289.07634558 445.52487538 296.8125 450.375 C308.39999031 457.63957387 320.04133995 464.81418178 331.69580078 471.97070312 C337.23641732 475.37351121 342.77463654 478.78021377 348.3125 482.1875 C349.93490601 483.18571777 349.93490601 483.18571777 351.59008789 484.20410156 C362.58093035 490.968978 373.55283973 497.76426496 384.52246094 504.56347656 C396.10349981 511.74077293 407.69765912 518.89629297 419.3046875 526.03149414 C424.56672943 529.26735202 429.82538429 532.5083787 435.07421875 535.765625 C436.02361328 536.35472656 436.97300781 536.94382812 437.95117188 537.55078125 C439.71488532 538.64602086 441.47795614 539.74229633 443.24023438 540.83984375 C447.77666821 543.65709117 452.34510819 546.38279175 457 549 C455.622517 552.72151038 453.92153949 555.96167384 451.83203125 559.33203125 C450.87490234 560.88180664 450.87490234 560.88180664 449.8984375 562.46289062 C449.21007812 563.56826172 448.52171875 564.67363281 447.8125 565.8125 C447.08954421 566.97963222 446.36689271 568.14695297 445.64453125 569.31445312 C440.34008927 577.87904042 434.99656914 586.41940744 429.64770508 594.95629883 C425.06147626 602.28166705 420.52225666 609.6349945 416 617 C410.18790788 626.46500435 404.32912197 635.89926576 398.43359375 645.3125 C393.90877231 652.53884985 389.41351006 659.78291009 384.93310547 667.03686523 C381.96822828 671.83299009 378.98953259 676.62007772 375.99609375 681.3984375 C375.320625 682.47673828 374.64515625 683.55503906 373.94921875 684.66601562 C372.64186785 686.7514307 371.33333956 688.8361083 370.0234375 690.91992188 C366.90661361 695.89135695 363.86124159 700.87687914 361 706 C357.87758272 705.37307341 355.63454612 704.32385502 352.95703125 702.61328125 C352.14927246 702.09950928 351.34151367 701.5857373 350.50927734 701.05639648 C349.61934082 700.48091064 348.7294043 699.9054248 347.8125 699.3125 C346.85037598 698.69511963 345.88825195 698.07773926 344.89697266 697.44165039 C335.0904569 691.11706937 325.39218847 684.62976848 315.69433594 678.14038086 C304.01968073 670.33028597 292.29736331 662.59427287 280.5625 654.875 C269.19504133 647.39732901 257.8374179 639.90607976 246.5234375 632.34765625 C245.58735153 631.72242065 244.65126556 631.09718506 243.68681335 630.45300293 C239.24444463 627.48469919 234.80435202 624.51306218 230.36743164 621.53662109 C221.64633555 615.69624562 212.86211448 609.98350929 203.97035217 604.40632629 C196.58130604 599.76192362 189.31023774 594.95174244 182.0619812 590.09133911 C179.79694891 588.57266788 177.52970221 587.05735024 175.26196289 585.54272461 C168.1031195 580.75992756 160.95070085 575.96757331 153.80065918 571.17163086 C150.74360462 569.12199496 147.68484322 567.07491582 144.62579346 565.02825928 C142.4718467 563.58550605 140.32061268 562.13876988 138.16943359 560.69189453 C136.86179032 559.81652757 135.55401771 558.94135378 134.24609375 558.06640625 C133.65405655 557.66655014 133.06201935 557.26669403 132.45204163 556.85472107 C129.96962901 555.19945096 127.84869116 553.94956372 125 553 C124.90792267 553.58106506 124.81584534 554.16213013 124.72097778 554.76080322 C123.14103941 564.08324098 120.80007597 573.19733267 118.4921875 582.359375 C118.04310868 584.15262023 117.59431298 585.94593639 117.14578247 587.73931885 C116.20480758 591.49863068 115.26154061 595.25735679 114.31640625 599.015625 C113.13005938 603.73314088 111.94763177 608.45162655 110.76673508 613.17050934 C106.1238646 631.72149338 101.45278987 650.26450759 96.64254761 668.77288818 C93.10951029 682.37316141 89.7416159 696.01339228 86.39637947 709.66080856 C85.43044955 713.59975748 84.46210809 717.5381139 83.49414062 721.4765625 C82.2772429 726.42802255 81.06105431 731.37965244 79.84790039 736.33203125 C78.85363042 740.39059136 77.85662311 744.44847097 76.85790825 748.50593948 C76.48427164 750.0259212 76.11156371 751.54613159 75.73991585 753.0666008 C73.55163778 762.01671833 71.23839998 770.91908824 68.73557377 779.78688622 C64.7043133 794.07204491 61.41260102 808.55753545 58 823 C41.96511967 819.59617997 26.0633134 815.63769111 10.15087891 811.7097168 C6.27977852 810.75422098 2.4076415 809.80300351 -1.4648056 808.85298252 C-4.50786229 808.10582892 -7.55028505 807.35611852 -10.59254456 806.60572624 C-12.01766403 806.25456185 -13.44297806 805.90418574 -14.86851501 805.55471992 C-22.58762938 803.6610303 -30.26759681 801.67028735 -37.91894531 799.51806641 C-45.98831445 797.24981315 -54.09535285 795.18205454 -62.23905182 793.19895363 C-64.59514288 792.62516596 -66.95033321 792.04779425 -69.30535889 791.46965027 C-74.28616016 790.24754394 -79.26801547 789.02977224 -84.25 787.8125 C-90.07474509 786.38900839 -95.89903003 784.96367595 -101.72234344 783.534338 C-104.03170308 782.96840738 -106.34178259 782.4054879 -108.6519165 781.84272766 C-110.06908612 781.49531084 -111.48622253 781.14775853 -112.90332031 780.80004883 C-114.13254211 780.49980301 -115.36176392 780.19955719 -116.62823486 779.89021301 C-119.80611184 779.05119033 -122.89588035 778.07762272 -126 777 C-125.22828541 771.80770295 -124.02914776 766.77233222 -122.75 761.6875 C-122.52747559 760.7994165 -122.30495117 759.91133301 -122.07568359 758.99633789 C-120.53517709 752.92496183 -118.83174089 746.92235987 -117.01660156 740.9284668 C-114.99478019 734.16595718 -113.24947871 727.33724841 -111.5 720.5 C-109.57637204 712.98214787 -107.62457771 705.4898918 -105.375 698.0625 C-103.31566138 691.26183507 -101.56755072 684.40744391 -99.87231445 677.5078125 C-97.35998894 667.32138547 -94.51969178 657.23195797 -91.59765625 647.15625 C-88.38578251 636.05882825 -85.40207409 624.92056094 -82.53564453 613.72875977 C-80.79426783 606.9629963 -78.94322685 600.25345188 -76.91381836 593.56933594 C-74.92376535 586.92774613 -73.21938823 580.21590102 -71.5 573.5 C-69.44614709 565.47768563 -67.32394611 557.50201088 -64.91625977 549.57910156 C-62.56716863 541.74306128 -60.58807543 533.80743984 -58.5859375 525.87695312 C-56.62442634 518.17231977 -54.40341869 510.57827713 -52 503 C-59.8680203 503.42529839 -67.58285979 504.17647192 -75.375 505.3125 C-86.03287627 506.85023689 -96.72199094 507.90348583 -107.4375 508.9375 C-119.48970019 510.1024408 -131.49960149 511.37625733 -143.5 513 C-156.37552567 514.74215385 -169.26785351 516.06716652 -182.19873047 517.31738281 C-191.49230585 518.21805111 -200.76081772 519.13378644 -210 520.5 C-220.11187387 521.99525994 -230.26600098 522.95407298 -240.4375 523.9375 C-253.718216 525.22185918 -266.93411974 526.70441419 -280.1574707 528.49536133 C-292.8116717 530.17592643 -305.50512599 531.40767148 -318.21289062 532.60546875 C-326.29842538 533.37572053 -334.28495719 534.30218121 -342.30419922 535.62060547 C-345.59501175 536.0837392 -348.68553337 536.15416124 -352 536 C-353.07664124 525.17560256 -354.06138204 514.37108911 -354.5 503.5 C-354.79005267 496.32607547 -355.30156704 489.20815248 -356 482.0625 C-356.79781121 473.89432965 -357.32878922 465.75331634 -357.5703125 457.54907227 C-357.78517078 451.40058519 -358.33000752 445.30741617 -358.93359375 439.1875 C-360.0206279 428.1583056 -360.81961115 417.11947322 -361.5625 406.0625 C-361.75168754 403.28880184 -361.94165194 400.51515761 -362.13166809 397.74151611 C-362.25371177 395.95361201 -362.37489296 394.1656488 -362.49516296 392.37762451 C-362.75104635 388.57948973 -363.01181105 384.78238968 -363.30981445 380.98730469 C-363.8762169 373.68166459 -364.12836988 366.45175735 -364.0625 359.125 C-364.05798828 358.13886719 -364.05347656 357.15273438 -364.04882812 356.13671875 C-364.03727969 353.75774203 -364.02100368 351.37890865 -364 349 C-360.47772547 347.82590849 -357.16510756 347.7010449 -353.4921875 347.53515625 C-352.73447052 347.49692245 -351.97675354 347.45868866 -351.19607544 347.41929626 C-348.75589534 347.29637018 -346.31550343 347.17881809 -343.875 347.0625 C-333.33026892 346.55874984 -322.81357373 345.931985 -312.29296875 345.05078125 C-298.49157632 343.90345518 -284.67280954 343.12731584 -270.8460083 342.36782837 C-263.2054467 341.94791216 -255.56562871 341.5147126 -247.92578125 341.08203125 C-246.7571542 341.01594823 -246.7571542 341.01594823 -245.56491852 340.9485302 C-228.78151425 339.99853052 -212.00215113 338.98682487 -195.22435379 337.94277191 C-193.13593692 337.81317867 -191.04745671 337.68465708 -188.95895386 337.55645752 C-185.07920696 337.31814849 -181.19974276 337.07544366 -177.3203125 336.83203125 C-175.61569099 336.72757942 -175.61569099 336.72757942 -173.87663269 336.62101746 C-167.42219612 336.21137065 -167.42219612 336.21137065 -160.99731445 335.49291992 C-155.59715948 334.76524534 -150.16082555 334.56167035 -144.72265625 334.28125 C-143.55673447 334.21844849 -142.39081268 334.15564697 -141.18955994 334.09094238 C-137.48067728 333.89128307 -133.7716183 333.69522944 -130.0625 333.5 C-125.1782216 333.24254796 -120.2941464 332.98160682 -115.41015625 332.71875 C-114.30052017 332.661427 -113.19088409 332.604104 -112.04762268 332.54504395 C-106.67202993 332.25573249 -101.34839306 331.85476549 -96.00318909 331.21743774 C-93.00436999 330.89192855 -90.00995399 330.78171943 -86.99609375 330.68359375 C-85.76181641 330.64169922 -84.52753906 330.59980469 -83.25585938 330.55664062 C-81.99580078 330.51732422 -80.73574219 330.47800781 -79.4375 330.4375 C-78.14263672 330.39431641 -76.84777344 330.35113281 -75.51367188 330.30664062 C-72.34253616 330.20132615 -69.17133207 330.09919383 -66 330 C-76.22467925 305.01813757 -86.51532052 280.06446483 -96.86767578 255.13525391 C-100.37246449 246.69530973 -103.87410454 238.25405972 -107.375 229.8125 C-107.72231171 228.97511292 -108.06962341 228.13772583 -108.42745972 227.27496338 C-114.53449784 212.54928503 -120.62201767 197.81558465 -126.70544434 183.08013916 C-131.98651093 170.2887757 -137.27442865 157.50029373 -142.57583618 144.71734619 C-143.61677776 142.20732626 -144.65740294 139.69717531 -145.69799805 137.18701172 C-148.96358393 129.31117844 -152.23318638 121.43704833 -155.51159668 113.56654358 C-157.07130912 109.82138608 -158.6292134 106.07547768 -160.18695068 102.32949829 C-160.92599275 100.55370938 -161.66591425 98.77828616 -162.40679932 97.00326538 C-166.13553645 88.06956937 -169.83897992 79.15509005 -173 70 C-167.18604296 67.00069324 -161.31118749 64.40690843 -155.23828125 61.98046875 C-153.84150902 61.41761925 -153.84150902 61.41761925 -152.41651917 60.84339905 C-149.3830522 59.62174395 -146.34777483 58.4046555 -143.3125 57.1875 C-141.18816588 56.3327243 -139.06398132 55.47757683 -136.93994141 54.62207031 C-132.6516992 52.89508865 -128.36291179 51.16947206 -124.07373047 49.44482422 C-116.4131935 46.36308881 -108.76045329 43.26224556 -101.10946655 40.15689087 C-98.11727779 38.94246738 -95.12473757 37.72891115 -92.13221741 36.51530457 C-89.90939356 35.61381833 -87.68662557 34.71219449 -85.46386719 33.81054688 C-78.58092004 31.01866112 -71.69731732 28.2283923 -64.81378174 25.43795776 C-61.00083843 23.89227188 -57.18791523 22.34653638 -53.375 20.80078125 C-52.6185318 20.49411026 -51.8620636 20.18743927 -51.08267212 19.87147522 C-46.13562895 17.86591102 -41.18869454 15.86007875 -36.24182129 13.85409546 C-32.81903432 12.46614792 -29.39621286 11.07828545 -25.97338867 9.69042969 C-24.33941957 9.02787465 -22.70546742 8.36527778 -21.0715332 7.70263672 C-18.80814821 6.78472528 -16.54470517 5.86695711 -14.28125 4.94921875 C-13.61528809 4.6790947 -12.94932617 4.40897064 -12.26318359 4.13066101 C-10.50914623 3.41955903 -8.7545939 2.70972765 -7 2 C-6.06607422 1.60917236 -5.13214844 1.21834473 -4.16992188 0.81567383 C-2 0 -2 0 0 0 Z " fill="#000000" transform="translate(506,104)"/>
</svg>
